<svg width="2000" height="2000" viewBox="0 0 2000 2000" fill="none" xmlns="http://www.w3.org/2000/svg">
<g clip-path="url(#clip0)">
<path d="M872.036 872.036L889.532 855H925H1000H1075H1110.47L1127.96 872.036L1145 889.532V925V1000V1075V1110.47L1127.96 1127.96L1110.47 1145H1075H1000H925H889.532L872.036 1127.96L855 1110.47V1075V1000V925V889.532L872.036 872.036Z" stroke="black" stroke-width="10"/>
<circle cx="825" cy="904" r="7.5" stroke="black" stroke-width="5"/>
<circle cx="825" cy="928" r="7.5" stroke="black" stroke-width="5"/>
<circle cx="825" cy="952" r="7.5" stroke="black" stroke-width="5"/>
<circle cx="825" cy="976" r="7.5" stroke="black" stroke-width="5"/>
<circle cx="825" cy="1000" r="7.5" stroke="black" stroke-width="5"/>
<circle cx="825" cy="1024" r="7.5" stroke="black" stroke-width="5"/>
<circle cx="825" cy="1048" r="7.5" stroke="black" stroke-width="5"/>
<circle cx="825" cy="1072" r="7.5" stroke="black" stroke-width="5"/>
<circle cx="825" cy="1096" r="7.5" stroke="black" stroke-width="5"/>
<g clip-path="url(#clip1)">
<circle cx="904" cy="1175" r="7.5" transform="rotate(-90 904 1175)" stroke="black" stroke-width="5"/>
<circle cx="928" cy="1175" r="7.5" transform="rotate(-90 928 1175)" stroke="black" stroke-width="5"/>
<circle cx="952" cy="1175" r="7.5" transform="rotate(-90 952 1175)" stroke="black" stroke-width="5"/>
<circle cx="976" cy="1175" r="7.5" transform="rotate(-90 976 1175)" stroke="black" stroke-width="5"/>
<circle cx="1000" cy="1175" r="7.5" transform="rotate(-90 1000 1175)" stroke="black" stroke-width="5"/>
<circle cx="1024" cy="1175" r="7.5" transform="rotate(-90 1024 1175)" stroke="black" stroke-width="5"/>
<circle cx="1048" cy="1175" r="7.5" transform="rotate(-90 1048 1175)" stroke="black" stroke-width="5"/>
<circle cx="1072" cy="1175" r="7.5" transform="rotate(-90 1072 1175)" stroke="black" stroke-width="5"/>
<circle cx="1096" cy="1175" r="7.5" transform="rotate(-90 1096 1175)" stroke="black" stroke-width="5"/>
</g>
<g clip-path="url(#clip2)">
<circle cx="904" cy="825" r="7.5" transform="rotate(-90 904 825)" stroke="black" stroke-width="5"/>
<circle cx="928" cy="825" r="7.5" transform="rotate(-90 928 825)" stroke="black" stroke-width="5"/>
<circle cx="952" cy="825" r="7.5" transform="rotate(-90 952 825)" stroke="black" stroke-width="5"/>
<circle cx="976" cy="825" r="7.5" transform="rotate(-90 976 825)" stroke="black" stroke-width="5"/>
<circle cx="1000" cy="825" r="7.5" transform="rotate(-90 1000 825)" stroke="black" stroke-width="5"/>
<circle cx="1024" cy="825" r="7.5" transform="rotate(-90 1024 825)" stroke="black" stroke-width="5"/>
<circle cx="1048" cy="825" r="7.5" transform="rotate(-90 1048 825)" stroke="black" stroke-width="5"/>
<circle cx="1072" cy="825" r="7.5" transform="rotate(-90 1072 825)" stroke="black" stroke-width="5"/>
<circle cx="1096" cy="825" r="7.5" transform="rotate(-90 1096 825)" stroke="black" stroke-width="5"/>
</g>
<circle cx="1175" cy="904" r="7.5" stroke="black" stroke-width="5"/>
<circle cx="1175" cy="928" r="7.5" stroke="black" stroke-width="5"/>
<circle cx="1175" cy="952" r="7.5" stroke="black" stroke-width="5"/>
<circle cx="1175" cy="976" r="7.5" stroke="black" stroke-width="5"/>
<circle cx="1175" cy="1000" r="7.5" stroke="black" stroke-width="5"/>
<circle cx="1175" cy="1024" r="7.5" stroke="black" stroke-width="5"/>
<circle cx="1175" cy="1048" r="7.5" stroke="black" stroke-width="5"/>
<circle cx="1175" cy="1072" r="7.5" stroke="black" stroke-width="5"/>
<circle cx="1175" cy="1096" r="7.5" stroke="black" stroke-width="5"/>
<path d="M1184 1000H1304.5L1331.5 1027H1396.5L1451.5 972H1623L1710 1059H1776.5L1823 1105.5H1918L1945 1078.5V1016" stroke="black" stroke-width="4"/>
<path d="M1175 895L1175 869.5L1222.5 822L1284 822L1468.5 637.5L1611 637.5L1687.5 561L1687.5 433L1761 359.5L1864.5 359.5L1920.5 303.5L1920.5 154L1961 113.5" stroke="black" stroke-width="4"/>
<path d="M1182.5 923L1223 882.5H1288.5L1363 808H1463L1553 718H1708.5L1803.5 623H1870.5L1949.5 544V451" stroke="black" stroke-width="4"/>
<path d="M1184 952H1260L1308.5 903.5H1372L1425.5 850H1595L1674 771H1873.5" stroke="black" stroke-width="4"/>
<path d="M1184 976H1281L1305 952H1396.5L1444 904.5H1598L1645.5 952H1737L1761 928H1865.5L1905.5 888H1972.5" stroke="black" stroke-width="4"/>
<path d="M1184 1024H1281L1328 1071H1456.5L1514 1013.5H1569L1671.5 1116H1741L1790.5 1165.5H1921" stroke="black" stroke-width="4"/>
<path d="M1183 1048H1234.5L1319 1132.5H1483.5L1523.5 1172.5H1695L1761.5 1239H1820L1915 1334V1444.5" stroke="black" stroke-width="4"/>
<path d="M1181 1078L1282.5 1179.5H1444.5L1482.5 1217.5H1559.5L1646.5 1304.5V1440L1712.5 1506H1806.5L1877.5 1577H1937" stroke="black" stroke-width="4"/>
<path d="M1182 1102.5L1230.5 1151V1240L1323.5 1333H1411L1499.5 1421.5V1581.5L1552 1634H1768L1843 1709V1797L1945 1899" stroke="black" stroke-width="4"/>
<circle cx="1946" cy="1577" r="7.5" stroke="black" stroke-width="5"/>
<circle cx="1915" cy="1453" r="7.5" stroke="black" stroke-width="5"/>
<circle cx="1930" cy="1165" r="7.5" stroke="black" stroke-width="5"/>
<circle cx="1945" cy="1007" r="7.5" stroke="black" stroke-width="5"/>
<circle cx="1883" cy="771" r="7.5" stroke="black" stroke-width="5"/>
<circle cx="1949.5" cy="442" r="7.5" stroke="black" stroke-width="5"/>
<circle cx="1967" cy="107" r="7.5" stroke="black" stroke-width="5"/>
<circle cx="1982" cy="888" r="7.5" stroke="black" stroke-width="5"/>
<circle cx="1952" cy="1905" r="7.5" stroke="black" stroke-width="5"/>
<path d="M999.5 815.5V695L1026.5 668V603L971.5 548V376.5L1058.5 289.5V223L1105 176.5V81.5L1078 54.5H1015.5" stroke="black" stroke-width="4"/>
<path d="M894.5 824.5L869 824.5L821.5 777L821.5 715.5L637 531L637 388.5L560.5 312L432.5 312L359 238.5L359 135L303 79L153.5 79L113 38.5" stroke="black" stroke-width="4"/>
<path d="M922.5 817L882 776.5V711L807.5 636.5V536.5L717.5 446.5V291L622.5 196V129L543.5 50H450.5" stroke="black" stroke-width="4"/>
<path d="M951.5 815.5V739.5L903 691V627.5L849.5 574V404.5L770.5 325.5V126" stroke="black" stroke-width="4"/>
<path d="M975.5 815.5V718.5L951.5 694.5V603L904 555.5V401.5L951.5 354V262.5L927.5 238.5V134L887.5 94V27" stroke="black" stroke-width="4"/>
<path d="M1023.5 815.5V718.5L1070.5 671.5V543L1013 485.5V430.5L1115.5 328V258.5L1165 209V78.5" stroke="black" stroke-width="4"/>
<path d="M1047.5 816.5V765L1132 680.5V516L1172 476V304.5L1238.5 238V179.5L1333.5 84.5H1444" stroke="black" stroke-width="4"/>
<path d="M1077.5 818.5L1179 717V555L1217 517V440L1304 353H1439.5L1505.5 287V193L1576.5 122V62.5" stroke="black" stroke-width="4"/>
<path d="M1102 817.5L1150.5 769H1239.5L1332.5 676V588.5L1421 500L1581 500L1633.5 447.5V231.5L1708.5 156.5H1796.5L1898.5 54.5" stroke="black" stroke-width="4"/>
<circle cx="1576.5" cy="53.5" r="7.5" transform="rotate(-90 1576.5 53.5)" stroke="black" stroke-width="5"/>
<circle cx="1452.5" cy="84.5" r="7.5" transform="rotate(-90 1452.5 84.5)" stroke="black" stroke-width="5"/>
<circle cx="1164.5" cy="69.5" r="7.5" transform="rotate(-90 1164.5 69.5)" stroke="black" stroke-width="5"/>
<circle cx="1006.5" cy="54.5" r="7.5" transform="rotate(-90 1006.5 54.5)" stroke="black" stroke-width="5"/>
<circle cx="770.5" cy="116.5" r="7.5" transform="rotate(-90 770.5 116.5)" stroke="black" stroke-width="5"/>
<circle cx="441.5" cy="50" r="7.5" transform="rotate(-90 441.5 50)" stroke="black" stroke-width="5"/>
<circle cx="106.5" cy="32.5" r="7.5" transform="rotate(-90 106.5 32.5)" stroke="black" stroke-width="5"/>
<circle cx="887.5" cy="17.5" r="7.5" transform="rotate(-90 887.5 17.5)" stroke="black" stroke-width="5"/>
<circle cx="1904.5" cy="47.5" r="7.5" transform="rotate(-90 1904.5 47.5)" stroke="black" stroke-width="5"/>
<path d="M815.5 1000H695L668 973H603L548 1028H376.5L289.5 941H223L176.5 894.5H81.5L54.5 921.5V984" stroke="black" stroke-width="4"/>
<path d="M824.5 1105L824.5 1130.5L777 1178L715.5 1178L531 1362.5L388.5 1362.5L312 1439L312 1567L238.5 1640.5L135 1640.5L79 1696.5L79 1846L38.5 1886.5" stroke="black" stroke-width="4"/>
<path d="M817 1077L776.5 1117.5H711L636.5 1192H536.5L446.5 1282H291L196 1377H129L50 1456V1549" stroke="black" stroke-width="4"/>
<path d="M815.5 1048H739.5L691 1096.5H627.5L574 1150H404.5L325.5 1229H126" stroke="black" stroke-width="4"/>
<path d="M815.5 1024H718.5L694.5 1048H603L555.5 1095.5H401.5L354 1048H262.5L238.5 1072H134L94 1112H27" stroke="black" stroke-width="4"/>
<path d="M815.5 976H718.5L671.5 929H543L485.5 986.5H430.5L328 884L258.5 884L209 834.5H78.5" stroke="black" stroke-width="4"/>
<path d="M816.5 952H765L680.5 867.5H516L476 827.5H304.5L238 761L179.5 761L84.5 666V555.5" stroke="black" stroke-width="4"/>
<path d="M818.5 922L717 820.5H555L517 782.5H440L353 695.5L353 560L287 494H193L122 423H62.5" stroke="black" stroke-width="4"/>
<path d="M817.5 897.5L769 849V760L676 667H588.5L500 578.5V418.5L447.5 366L231.5 366L156.5 291V203L54.5 101" stroke="black" stroke-width="4"/>
<circle cx="53.5" cy="423" r="7.5" transform="rotate(-180 53.5 423)" stroke="black" stroke-width="5"/>
<circle cx="84.5" cy="547" r="7.5" transform="rotate(-180 84.5 547)" stroke="black" stroke-width="5"/>
<circle cx="69.5" cy="835" r="7.5" transform="rotate(-180 69.5 835)" stroke="black" stroke-width="5"/>
<circle cx="54.5" cy="993" r="7.5" transform="rotate(-180 54.5 993)" stroke="black" stroke-width="5"/>
<circle cx="116.5" cy="1229" r="7.5" transform="rotate(-180 116.5 1229)" stroke="black" stroke-width="5"/>
<circle cx="50" cy="1558" r="7.5" transform="rotate(-180 50 1558)" stroke="black" stroke-width="5"/>
<circle cx="32.5" cy="1893" r="7.5" transform="rotate(-180 32.5 1893)" stroke="black" stroke-width="5"/>
<circle cx="17.5" cy="1112" r="7.5" transform="rotate(-180 17.5 1112)" stroke="black" stroke-width="5"/>
<circle cx="47.5" cy="95" r="7.5" transform="rotate(-180 47.5 95)" stroke="black" stroke-width="5"/>
<path d="M1000 1183V1303.5L973 1330.5V1395.5L1028 1450.5V1622L941 1709V1775.5L894.5 1822V1917L921.5 1944H984" stroke="black" stroke-width="4"/>
<path d="M1105 1174L1130.5 1174L1178 1221.5L1178 1283L1362.5 1467.5L1362.5 1610L1439 1686.5L1567 1686.5L1640.5 1760L1640.5 1863.5L1696.5 1919.5L1846 1919.5L1886.5 1960" stroke="black" stroke-width="4"/>
<path d="M1077 1181.5L1117.5 1222V1287.5L1192 1362V1462L1282 1552V1707.5L1377 1802.5V1869.5L1456 1948.5H1549" stroke="black" stroke-width="4"/>
<path d="M1048 1183V1259L1096.5 1307.5V1371L1150 1424.5V1594L1229 1673V1872.5" stroke="black" stroke-width="4"/>
<path d="M1024 1183V1280L1048 1304V1395.5L1095.5 1443V1597L1048 1644.5V1736L1072 1760V1864.5L1112 1904.5V1971.5" stroke="black" stroke-width="4"/>
<path d="M976 1183V1280L929 1327V1455.5L986.5 1513V1568L884 1670.5V1740L834.5 1789.5V1920" stroke="black" stroke-width="4"/>
<path d="M952 1182V1233.5L867.5 1318V1482.5L827.5 1522.5V1694L761 1760.5V1819L666 1914H555.5" stroke="black" stroke-width="4"/>
<path d="M922 1180L820.5 1281.5V1443.5L782.5 1481.5V1558.5L695.5 1645.5H560L494 1711.5V1805.5L423 1876.5V1936" stroke="black" stroke-width="4"/>
<path d="M897.5 1181L849 1229.5H760L667 1322.5V1410L578.5 1498.5H418.5L366 1551V1767L291 1842H203L101 1944" stroke="black" stroke-width="4"/>
<circle cx="423" cy="1945" r="7.5" transform="rotate(90 423 1945)" stroke="black" stroke-width="5"/>
<circle cx="547" cy="1914" r="7.5" transform="rotate(90 547 1914)" stroke="black" stroke-width="5"/>
<circle cx="835" cy="1929" r="7.5" transform="rotate(90 835 1929)" stroke="black" stroke-width="5"/>
<circle cx="993" cy="1944" r="7.5" transform="rotate(90 993 1944)" stroke="black" stroke-width="5"/>
<circle cx="1229" cy="1882" r="7.5" transform="rotate(90 1229 1882)" stroke="black" stroke-width="5"/>
<circle cx="1558" cy="1948.5" r="7.5" transform="rotate(90 1558 1948.5)" stroke="black" stroke-width="5"/>
<circle cx="1893" cy="1966" r="7.5" transform="rotate(90 1893 1966)" stroke="black" stroke-width="5"/>
<circle cx="1112" cy="1981" r="7.5" transform="rotate(90 1112 1981)" stroke="black" stroke-width="5"/>
<circle cx="95" cy="1951" r="7.5" transform="rotate(90 95 1951)" stroke="black" stroke-width="5"/>
</g>
<defs>
<clipPath id="clip0">
<path d="M0 0H2000V2000H0V0Z" fill="white"/>
</clipPath>
<clipPath id="clip1">
<path d="M888 1200V1150H1112V1200H888Z" fill="white"/>
</clipPath>
<clipPath id="clip2">
<path d="M888 850V800H1112V850H888Z" fill="white"/>
</clipPath>
</defs>
</svg>
