<svg width="340" height="235" viewBox="0 0 340 235" fill="none" xmlns="http://www.w3.org/2000/svg">
<g clip-path="url(#clip0)">
<g filter="url(#filter0_d)">
<path d="M177.5 228V128L175 130.5H170V235.5L177.5 228Z" fill="#37474F"/>
</g>
<g filter="url(#filter1_d)">
<path d="M180 125.5V100.5L175 105.5H170V130.5H175L180 125.5Z" fill="#37474F"/>
</g>
<g filter="url(#filter2_d)">
<path d="M175 25.5L185 35.5V95.5L175 105.5H170V25.5H175Z" fill="#37474F"/>
</g>
<g filter="url(#filter3_d)">
<path d="M195 70.5L185 60.5V80.5L215 110.5H260L270 100.5H315L340 75.5L335 70.5H195Z" fill="#37474F"/>
</g>
<path d="M334 75.5C334 76.0523 333.552 76.5 333 76.5C332.448 76.5 332 76.0523 332 75.5C332 74.9477 332.448 74.5 333 74.5C333.552 74.5 334 74.9477 334 75.5Z" stroke="#4FC3F7"/>
<path d="M323.5 85.5C323.5 86.0523 323.052 86.5 322.5 86.5C321.948 86.5 321.5 86.0523 321.5 85.5C321.5 84.9477 321.948 84.5 322.5 84.5C323.052 84.5 323.5 84.9477 323.5 85.5Z" stroke="#4FC3F7"/>
<path d="M313.5 95.5C313.5 96.0523 313.052 96.5 312.5 96.5C311.948 96.5 311.5 96.0523 311.5 95.5C311.5 94.9477 311.948 94.5 312.5 94.5C313.052 94.5 313.5 94.9477 313.5 95.5Z" stroke="#4FC3F7"/>
<path d="M301 95.5C301 96.0523 300.552 96.5 300 96.5C299.448 96.5 299 96.0523 299 95.5C299 94.9477 299.448 94.5 300 94.5C300.552 94.5 301 94.9477 301 95.5Z" stroke="#4FC3F7"/>
<path d="M291 85.5C291 86.0523 290.552 86.5 290 86.5C289.448 86.5 289 86.0523 289 85.5C289 84.9477 289.448 84.5 290 84.5C290.552 84.5 291 84.9477 291 85.5Z" stroke="#4FC3F7"/>
<path d="M286 95.5C286 96.0523 285.552 96.5 285 96.5C284.448 96.5 284 96.0523 284 95.5C284 94.9477 284.448 94.5 285 94.5C285.552 94.5 286 94.9477 286 95.5Z" stroke="#4FC3F7"/>
<path d="M248.5 95.5C248.5 96.0523 248.052 96.5 247.5 96.5C246.948 96.5 246.5 96.0523 246.5 95.5C246.5 94.9477 246.948 94.5 247.5 94.5C248.052 94.5 248.5 94.9477 248.5 95.5Z" stroke="#4FC3F7"/>
<path d="M221 95.5C221 96.0523 220.552 96.5 220 96.5C219.448 96.5 219 96.0523 219 95.5C219 94.9477 219.448 94.5 220 94.5C220.552 94.5 221 94.9477 221 95.5Z" stroke="#4FC3F7"/>
<path d="M266 85.5C266 86.0523 265.552 86.5 265 86.5C264.448 86.5 264 86.0523 264 85.5C264 84.9477 264.448 84.5 265 84.5C265.552 84.5 266 84.9477 266 85.5Z" stroke="#4FC3F7"/>
<path d="M238.5 85.5C238.5 86.0523 238.052 86.5 237.5 86.5C236.948 86.5 236.5 86.0523 236.5 85.5C236.5 84.9477 236.948 84.5 237.5 84.5C238.052 84.5 238.5 84.9477 238.5 85.5Z" stroke="#4FC3F7"/>
<path d="M258.5 105.5C258.5 106.052 258.052 106.5 257.5 106.5C256.948 106.5 256.5 106.052 256.5 105.5C256.5 104.948 256.948 104.5 257.5 104.5C258.052 104.5 258.5 104.948 258.5 105.5Z" stroke="#4FC3F7"/>
<path d="M200 90.5H215M184.5 70L195 80.5H232.5M222 90.5H242.5M267.5 80.5H285M210 100.5H262.5M250 90.5H280M240 80.5H260M287.5 90.5H295M292.5 80.5H327.5M302.5 90.5H317.5" stroke="#607D8B" stroke-linecap="round" stroke-linejoin="bevel"/>
<path d="M184.5 75L195 85.5M256.5 105.5H234.75H215L205 95.5M195 85.5H217.5M195 85.5L205 95.5M236.5 85.5H217.5M217.5 85.5L227.5 95.5H246.5M205 95.5H219" stroke="#4FC3F7"/>
<path d="M184 64.5L195 75.5H227H235M235 75.5H238H245H262.5M235 75.5L245 85.5M332 75.5H287.5M287.5 75.5L297.5 85.5M287.5 75.5H275H262.5M311.5 95.5H307.5L297.5 85.5M297.5 85.5H321.5M262.5 75.5L272.5 85.5H282.5M289 85.5H282.5M282.5 85.5L292.5 95.5H299M284 95.5H255L245 85.5M245 85.5H264" stroke="#4FC3F7"/>
<g filter="url(#filter4_d)">
<path d="M195 35.5L185 45.5V55.5L195 65.5H275L295 45.5H302.5L332.5 15.5H295H277.06L267.058 25.5H237.65L227.65 35.5H195Z" fill="#37474F"/>
</g>
<circle cx="320" cy="20.5" r="1" stroke="#4FC3F7"/>
<circle cx="300" cy="40.5" r="1" stroke="#4FC3F7"/>
<path d="M283.5 50.5C283.5 51.0523 283.052 51.5 282.5 51.5C281.948 51.5 281.5 51.0523 281.5 50.5C281.5 49.9477 281.948 49.5 282.5 49.5C283.052 49.5 283.5 49.9477 283.5 50.5Z" stroke="#4FC3F7"/>
<path d="M273.5 60.5C273.5 61.0523 273.052 61.5 272.5 61.5C271.948 61.5 271.5 61.0523 271.5 60.5C271.5 59.9477 271.948 59.5 272.5 59.5C273.052 59.5 273.5 59.9477 273.5 60.5Z" stroke="#4FC3F7"/>
<path d="M261 40.5C261 41.0523 260.552 41.5 260 41.5C259.448 41.5 259 41.0523 259 40.5C259 39.9477 259.448 39.5 260 39.5C260.552 39.5 261 39.9477 261 40.5Z" stroke="#4FC3F7"/>
<circle cx="235" cy="60.5" r="1" stroke="#4FC3F7"/>
<circle cx="310" cy="30.5" r="1" stroke="#4FC3F7"/>
<path d="M190 55.5H230M190 45.5H255M235 35.5H305M275 25.5H315M238 55.5H277.5M262.5 45.5H287.5" stroke="#607D8B" stroke-linecap="round" stroke-linejoin="bevel"/>
<path d="M185 50.5L195 40.5H230M185 50.5L195 60.5H234M185 50.5H233M230 40.5L240 30.5H270M230 40.5H259M270 30.5H282.09H309M270 30.5L275 25.5L280 20.5H319M233 50.5L243 60.5H271.5M233 50.5H257.5M281.5 50.5H257.5M257.5 50.5L267.5 40.5H299" stroke="#4FC3F7"/>
<g filter="url(#filter5_d)">
<path d="M180 25.5H170V0.5H175L185 10.5V20.5L180 25.5Z" fill="#37474F"/>
</g>
<path d="M170 60.5V50.5M170 60.5L182 72.5M170 60.5V76M177.5 8L170 15.5V50.5M170 230.5V76M170 50.5H182M170 50.5L182 62.5M170 50.5L179.5 41V30.5M170 76L179.5 85.5V100.5" stroke="#4FC3F7"/>
<path d="M170 230.5H175L170 235.5V230.5Z" fill="#4FC3F7"/>
<path d="M175 130.5L178 127.5H170V130.5H175Z" fill="#4FC3F7"/>
<path d="M175 105.5L180 100.5H170V105.5H175Z" fill="#4FC3F7"/>
<path d="M182 48.5L185 45.5V55.5L182 52.5V48.5Z" fill="#4FC3F7"/>
<path d="M181.5 57L185 60.5V80.5L181.5 77V57Z" fill="#4FC3F7"/>
<path d="M175 25.5L180 30.5H170V25.5H175Z" fill="#4FC3F7"/>
<path d="M175 5.5V0.5L185 10.5H180L175 5.5Z" fill="#4FC3F7"/>
<g filter="url(#filter6_d)">
<path d="M162.5 228V128L165 130.5H170V235.5L162.5 228Z" fill="#37474F"/>
</g>
<g filter="url(#filter7_d)">
<path d="M160 125.5V100.5L165 105.5H170V130.5H165L160 125.5Z" fill="#37474F"/>
</g>
<g filter="url(#filter8_d)">
<path d="M165 25.5L155 35.5V95.5L165 105.5H170V25.5H165Z" fill="#37474F"/>
</g>
<g filter="url(#filter9_d)">
<path d="M145 70.5L155 60.5V80.5L125 110.5H80L70 100.5H25L0 75.5L5 70.5H145Z" fill="#37474F"/>
</g>
<path d="M6 75.5C6 76.0523 6.44772 76.5 7 76.5C7.55228 76.5 8 76.0523 8 75.5C8 74.9477 7.55228 74.5 7 74.5C6.44772 74.5 6 74.9477 6 75.5Z" stroke="#4FC3F7"/>
<path d="M16.5 85.5C16.5 86.0523 16.9477 86.5 17.5 86.5C18.0523 86.5 18.5 86.0523 18.5 85.5C18.5 84.9477 18.0523 84.5 17.5 84.5C16.9477 84.5 16.5 84.9477 16.5 85.5Z" stroke="#4FC3F7"/>
<path d="M26.5 95.5C26.5 96.0523 26.9477 96.5 27.5 96.5C28.0523 96.5 28.5 96.0523 28.5 95.5C28.5 94.9477 28.0523 94.5 27.5 94.5C26.9477 94.5 26.5 94.9477 26.5 95.5Z" stroke="#4FC3F7"/>
<path d="M39 95.5C39 96.0523 39.4477 96.5 40 96.5C40.5523 96.5 41 96.0523 41 95.5C41 94.9477 40.5523 94.5 40 94.5C39.4477 94.5 39 94.9477 39 95.5Z" stroke="#4FC3F7"/>
<path d="M49 85.5C49 86.0523 49.4477 86.5 50 86.5C50.5523 86.5 51 86.0523 51 85.5C51 84.9477 50.5523 84.5 50 84.5C49.4477 84.5 49 84.9477 49 85.5Z" stroke="#4FC3F7"/>
<path d="M54 95.5C54 96.0523 54.4477 96.5 55 96.5C55.5523 96.5 56 96.0523 56 95.5C56 94.9477 55.5523 94.5 55 94.5C54.4477 94.5 54 94.9477 54 95.5Z" stroke="#4FC3F7"/>
<path d="M91.5 95.5C91.5 96.0523 91.9477 96.5 92.5 96.5C93.0523 96.5 93.5 96.0523 93.5 95.5C93.5 94.9477 93.0523 94.5 92.5 94.5C91.9477 94.5 91.5 94.9477 91.5 95.5Z" stroke="#4FC3F7"/>
<path d="M119 95.5C119 96.0523 119.448 96.5 120 96.5C120.552 96.5 121 96.0523 121 95.5C121 94.9477 120.552 94.5 120 94.5C119.448 94.5 119 94.9477 119 95.5Z" stroke="#4FC3F7"/>
<path d="M74 85.5C74 86.0523 74.4477 86.5 75 86.5C75.5523 86.5 76 86.0523 76 85.5C76 84.9477 75.5523 84.5 75 84.5C74.4477 84.5 74 84.9477 74 85.5Z" stroke="#4FC3F7"/>
<path d="M101.5 85.5C101.5 86.0523 101.948 86.5 102.5 86.5C103.052 86.5 103.5 86.0523 103.5 85.5C103.5 84.9477 103.052 84.5 102.5 84.5C101.948 84.5 101.5 84.9477 101.5 85.5Z" stroke="#4FC3F7"/>
<path d="M81.5 105.5C81.5 106.052 81.9477 106.5 82.5 106.5C83.0523 106.5 83.5 106.052 83.5 105.5C83.5 104.948 83.0523 104.5 82.5 104.5C81.9477 104.5 81.5 104.948 81.5 105.5Z" stroke="#4FC3F7"/>
<path d="M140 90.5H125M155.5 70L145 80.5H107.5M118 90.5H97.5M72.5 80.5H55M130 100.5H77.5M90 90.5H60M100 80.5H80M52.5 90.5H45M47.5 80.5H12.5M37.5 90.5H22.5" stroke="#607D8B" stroke-linecap="round" stroke-linejoin="bevel"/>
<path d="M155.5 75L145 85.5M83.5 105.5H105.25H125L135 95.5M145 85.5H122.5M145 85.5L135 95.5M103.5 85.5H122.5M122.5 85.5L112.5 95.5H93.5M135 95.5H121" stroke="#4FC3F7"/>
<path d="M156 64.5L145 75.5H113H105M105 75.5H102H95H77.5M105 75.5L95 85.5M8 75.5H52.5M52.5 75.5L42.5 85.5M52.5 75.5H65H77.5M28.5 95.5H32.5L42.5 85.5M42.5 85.5H18.5M77.5 75.5L67.5 85.5H57.5M51 85.5H57.5M57.5 85.5L47.5 95.5H41M56 95.5H85L95 85.5M95 85.5H76" stroke="#4FC3F7"/>
<g filter="url(#filter10_d)">
<path d="M145 35.5L155 45.5V55.5L145 65.5H65L45 45.5H37.5L7.5 15.5H45H62.94L72.9415 25.5H102.35L112.35 35.5H145Z" fill="#37474F"/>
</g>
<circle r="1" transform="matrix(-1 0 0 1 20 20.5)" stroke="#4FC3F7"/>
<circle r="1" transform="matrix(-1 0 0 1 40 40.5)" stroke="#4FC3F7"/>
<path d="M56.5 50.5C56.5 51.0523 56.9477 51.5 57.5 51.5C58.0523 51.5 58.5 51.0523 58.5 50.5C58.5 49.9477 58.0523 49.5 57.5 49.5C56.9477 49.5 56.5 49.9477 56.5 50.5Z" stroke="#4FC3F7"/>
<path d="M66.5 60.5C66.5 61.0523 66.9477 61.5 67.5 61.5C68.0523 61.5 68.5 61.0523 68.5 60.5C68.5 59.9477 68.0523 59.5 67.5 59.5C66.9477 59.5 66.5 59.9477 66.5 60.5Z" stroke="#4FC3F7"/>
<path d="M79 40.5C79 41.0523 79.4477 41.5 80 41.5C80.5523 41.5 81 41.0523 81 40.5C81 39.9477 80.5523 39.5 80 39.5C79.4477 39.5 79 39.9477 79 40.5Z" stroke="#4FC3F7"/>
<circle r="1" transform="matrix(-1 0 0 1 105 60.5)" stroke="#4FC3F7"/>
<circle r="1" transform="matrix(-1 0 0 1 30 30.5)" stroke="#4FC3F7"/>
<path d="M150 55.5H110M150 45.5H85M105 35.5H35M65 25.5H25M102 55.5H62.5M77.5 45.5H52.5" stroke="#607D8B" stroke-linecap="round" stroke-linejoin="bevel"/>
<path d="M155 50.5L145 40.5H110M155 50.5L145 60.5H106M155 50.5H107M110 40.5L100 30.5H70M110 40.5H81M70 30.5H57.9098H31M70 30.5L65 25.5L60 20.5H21M107 50.5L97 60.5H68.5M107 50.5H82.5M58.5 50.5H82.5M82.5 50.5L72.5 40.5H41" stroke="#4FC3F7"/>
<g filter="url(#filter11_d)">
<path d="M160 25.5H170V0.5H165L155 10.5V20.5L160 25.5Z" fill="#37474F"/>
</g>
<path d="M170 60.5V50.5M170 60.5L158 72.5M170 60.5V76M162.5 8L170 15.5V50.5M170 230.5V76M170 50.5H158M170 50.5L158 62.5M170 50.5L160.5 41V30.5M170 76L160.5 85.5V100.5" stroke="#4FC3F7"/>
<path d="M170 230.5H165L170 235.5V230.5Z" fill="#4FC3F7"/>
<path d="M165 130.5L162 127.5H170V130.5H165Z" fill="#4FC3F7"/>
<path d="M165 105.5L160 100.5H170V105.5H165Z" fill="#4FC3F7"/>
<path d="M158 48.5L155 45.5V55.5L158 52.5V48.5Z" fill="#4FC3F7"/>
<path d="M158.5 57L155 60.5V80.5L158.5 77V57Z" fill="#4FC3F7"/>
<path d="M165 25.5L160 30.5H170V25.5H165Z" fill="#4FC3F7"/>
<path d="M165 5.5V0.5L155 10.5H160L165 5.5Z" fill="#4FC3F7"/>
</g>
<defs>
<filter id="filter0_d" x="167" y="128" width="15.5" height="115.5" filterUnits="userSpaceOnUse" color-interpolation-filters="sRGB">
<feFlood flood-opacity="0" result="BackgroundImageFix"/>
<feColorMatrix in="SourceAlpha" type="matrix" values="0 0 0 0 0 0 0 0 0 0 0 0 0 0 0 0 0 0 127 0"/>
<feOffset dx="1" dy="4"/>
<feGaussianBlur stdDeviation="2"/>
<feColorMatrix type="matrix" values="0 0 0 0 0 0 0 0 0 0 0 0 0 0 0 0 0 0 0.25 0"/>
<feBlend mode="normal" in2="BackgroundImageFix" result="effect1_dropShadow"/>
<feBlend mode="normal" in="SourceGraphic" in2="effect1_dropShadow" result="shape"/>
</filter>
<filter id="filter1_d" x="168" y="100.5" width="18" height="38" filterUnits="userSpaceOnUse" color-interpolation-filters="sRGB">
<feFlood flood-opacity="0" result="BackgroundImageFix"/>
<feColorMatrix in="SourceAlpha" type="matrix" values="0 0 0 0 0 0 0 0 0 0 0 0 0 0 0 0 0 0 127 0"/>
<feOffset dx="2" dy="4"/>
<feGaussianBlur stdDeviation="2"/>
<feColorMatrix type="matrix" values="0 0 0 0 0 0 0 0 0 0 0 0 0 0 0 0 0 0 0.25 0"/>
<feBlend mode="normal" in2="BackgroundImageFix" result="effect1_dropShadow"/>
<feBlend mode="normal" in="SourceGraphic" in2="effect1_dropShadow" result="shape"/>
</filter>
<filter id="filter2_d" x="169" y="25.5" width="21" height="86" filterUnits="userSpaceOnUse" color-interpolation-filters="sRGB">
<feFlood flood-opacity="0" result="BackgroundImageFix"/>
<feColorMatrix in="SourceAlpha" type="matrix" values="0 0 0 0 0 0 0 0 0 0 0 0 0 0 0 0 0 0 127 0"/>
<feOffset dx="2" dy="3"/>
<feGaussianBlur stdDeviation="1.5"/>
<feColorMatrix type="matrix" values="0 0 0 0 0 0 0 0 0 0 0 0 0 0 0 0 0 0 0.25 0"/>
<feBlend mode="normal" in2="BackgroundImageFix" result="effect1_dropShadow"/>
<feBlend mode="normal" in="SourceGraphic" in2="effect1_dropShadow" result="shape"/>
</filter>
<filter id="filter3_d" x="184" y="60.5" width="163" height="58" filterUnits="userSpaceOnUse" color-interpolation-filters="sRGB">
<feFlood flood-opacity="0" result="BackgroundImageFix"/>
<feColorMatrix in="SourceAlpha" type="matrix" values="0 0 0 0 0 0 0 0 0 0 0 0 0 0 0 0 0 0 127 0"/>
<feOffset dx="3" dy="4"/>
<feGaussianBlur stdDeviation="2"/>
<feColorMatrix type="matrix" values="0 0 0 0 0 0 0 0 0 0 0 0 0 0 0 0 0 0 0.25 0"/>
<feBlend mode="normal" in2="BackgroundImageFix" result="effect1_dropShadow"/>
<feBlend mode="normal" in="SourceGraphic" in2="effect1_dropShadow" result="shape"/>
</filter>
<filter id="filter4_d" x="185" y="15.5" width="153.5" height="57" filterUnits="userSpaceOnUse" color-interpolation-filters="sRGB">
<feFlood flood-opacity="0" result="BackgroundImageFix"/>
<feColorMatrix in="SourceAlpha" type="matrix" values="0 0 0 0 0 0 0 0 0 0 0 0 0 0 0 0 0 0 127 0"/>
<feOffset dx="3" dy="4"/>
<feGaussianBlur stdDeviation="1.5"/>
<feColorMatrix type="matrix" values="0 0 0 0 0 0 0 0 0 0 0 0 0 0 0 0 0 0 0.25 0"/>
<feBlend mode="normal" in2="BackgroundImageFix" result="effect1_dropShadow"/>
<feBlend mode="normal" in="SourceGraphic" in2="effect1_dropShadow" result="shape"/>
</filter>
<filter id="filter5_d" x="170" y="0.5" width="19" height="29" filterUnits="userSpaceOnUse" color-interpolation-filters="sRGB">
<feFlood flood-opacity="0" result="BackgroundImageFix"/>
<feColorMatrix in="SourceAlpha" type="matrix" values="0 0 0 0 0 0 0 0 0 0 0 0 0 0 0 0 0 0 127 0"/>
<feOffset dx="2" dy="2"/>
<feGaussianBlur stdDeviation="1"/>
<feColorMatrix type="matrix" values="0 0 0 0 0 0 0 0 0 0 0 0 0 0 0 0 0 0 0.25 0"/>
<feBlend mode="normal" in2="BackgroundImageFix" result="effect1_dropShadow"/>
<feBlend mode="normal" in="SourceGraphic" in2="effect1_dropShadow" result="shape"/>
</filter>
<filter id="filter6_d" x="157.5" y="128" width="15.5" height="115.5" filterUnits="userSpaceOnUse" color-interpolation-filters="sRGB">
<feFlood flood-opacity="0" result="BackgroundImageFix"/>
<feColorMatrix in="SourceAlpha" type="matrix" values="0 0 0 0 0 0 0 0 0 0 0 0 0 0 0 0 0 0 127 0"/>
<feOffset dx="-1" dy="4"/>
<feGaussianBlur stdDeviation="2"/>
<feColorMatrix type="matrix" values="0 0 0 0 0 0 0 0 0 0 0 0 0 0 0 0 0 0 0.25 0"/>
<feBlend mode="normal" in2="BackgroundImageFix" result="effect1_dropShadow"/>
<feBlend mode="normal" in="SourceGraphic" in2="effect1_dropShadow" result="shape"/>
</filter>
<filter id="filter7_d" x="154" y="100.5" width="18" height="38" filterUnits="userSpaceOnUse" color-interpolation-filters="sRGB">
<feFlood flood-opacity="0" result="BackgroundImageFix"/>
<feColorMatrix in="SourceAlpha" type="matrix" values="0 0 0 0 0 0 0 0 0 0 0 0 0 0 0 0 0 0 127 0"/>
<feOffset dx="-2" dy="4"/>
<feGaussianBlur stdDeviation="2"/>
<feColorMatrix type="matrix" values="0 0 0 0 0 0 0 0 0 0 0 0 0 0 0 0 0 0 0.25 0"/>
<feBlend mode="normal" in2="BackgroundImageFix" result="effect1_dropShadow"/>
<feBlend mode="normal" in="SourceGraphic" in2="effect1_dropShadow" result="shape"/>
</filter>
<filter id="filter8_d" x="150" y="25.5" width="21" height="86" filterUnits="userSpaceOnUse" color-interpolation-filters="sRGB">
<feFlood flood-opacity="0" result="BackgroundImageFix"/>
<feColorMatrix in="SourceAlpha" type="matrix" values="0 0 0 0 0 0 0 0 0 0 0 0 0 0 0 0 0 0 127 0"/>
<feOffset dx="-2" dy="3"/>
<feGaussianBlur stdDeviation="1.5"/>
<feColorMatrix type="matrix" values="0 0 0 0 0 0 0 0 0 0 0 0 0 0 0 0 0 0 0.25 0"/>
<feBlend mode="normal" in2="BackgroundImageFix" result="effect1_dropShadow"/>
<feBlend mode="normal" in="SourceGraphic" in2="effect1_dropShadow" result="shape"/>
</filter>
<filter id="filter9_d" x="-7" y="60.5" width="163" height="58" filterUnits="userSpaceOnUse" color-interpolation-filters="sRGB">
<feFlood flood-opacity="0" result="BackgroundImageFix"/>
<feColorMatrix in="SourceAlpha" type="matrix" values="0 0 0 0 0 0 0 0 0 0 0 0 0 0 0 0 0 0 127 0"/>
<feOffset dx="-3" dy="4"/>
<feGaussianBlur stdDeviation="2"/>
<feColorMatrix type="matrix" values="0 0 0 0 0 0 0 0 0 0 0 0 0 0 0 0 0 0 0.25 0"/>
<feBlend mode="normal" in2="BackgroundImageFix" result="effect1_dropShadow"/>
<feBlend mode="normal" in="SourceGraphic" in2="effect1_dropShadow" result="shape"/>
</filter>
<filter id="filter10_d" x="1.5" y="15.5" width="153.5" height="57" filterUnits="userSpaceOnUse" color-interpolation-filters="sRGB">
<feFlood flood-opacity="0" result="BackgroundImageFix"/>
<feColorMatrix in="SourceAlpha" type="matrix" values="0 0 0 0 0 0 0 0 0 0 0 0 0 0 0 0 0 0 127 0"/>
<feOffset dx="-3" dy="4"/>
<feGaussianBlur stdDeviation="1.5"/>
<feColorMatrix type="matrix" values="0 0 0 0 0 0 0 0 0 0 0 0 0 0 0 0 0 0 0.25 0"/>
<feBlend mode="normal" in2="BackgroundImageFix" result="effect1_dropShadow"/>
<feBlend mode="normal" in="SourceGraphic" in2="effect1_dropShadow" result="shape"/>
</filter>
<filter id="filter11_d" x="151" y="0.5" width="19" height="29" filterUnits="userSpaceOnUse" color-interpolation-filters="sRGB">
<feFlood flood-opacity="0" result="BackgroundImageFix"/>
<feColorMatrix in="SourceAlpha" type="matrix" values="0 0 0 0 0 0 0 0 0 0 0 0 0 0 0 0 0 0 127 0"/>
<feOffset dx="-2" dy="2"/>
<feGaussianBlur stdDeviation="1"/>
<feColorMatrix type="matrix" values="0 0 0 0 0 0 0 0 0 0 0 0 0 0 0 0 0 0 0.25 0"/>
<feBlend mode="normal" in2="BackgroundImageFix" result="effect1_dropShadow"/>
<feBlend mode="normal" in="SourceGraphic" in2="effect1_dropShadow" result="shape"/>
</filter>
<clipPath id="clip0">
<path d="M0 0H340V235H0V0Z" fill="white"/>
</clipPath>
</defs>
</svg>
