<svg width="340" height="340" viewBox="0 0 340 340" fill="none" xmlns="http://www.w3.org/2000/svg">
<g clip-path="url(#clip0)">
<rect width="340" height="340" fill="#263238"/>
<g clip-path="url(#clip1)">
<g filter="url(#filter0_d)">
<path d="M177.5 280V180L175 182.5H170V287.5L177.5 280Z" fill="#37474F"/>
</g>
<g filter="url(#filter1_d)">
<path d="M180 177.5V152.5L175 157.5H170V182.5H175L180 177.5Z" fill="#37474F"/>
</g>
<g filter="url(#filter2_d)">
<path d="M175 77.5L185 87.5V147.5L175 157.5H170V77.5H175Z" fill="#37474F"/>
</g>
<g filter="url(#filter3_d)">
<path d="M195 122.5L185 112.5V132.5L215 162.5H260L270 152.5H315L340 127.5L335 122.5H195Z" fill="#37474F"/>
</g>
<path d="M334 127.5C334 128.052 333.552 128.5 333 128.5C332.448 128.5 332 128.052 332 127.5C332 126.948 332.448 126.5 333 126.5C333.552 126.5 334 126.948 334 127.5Z" stroke="#4FC3F7"/>
<path d="M323.5 137.5C323.5 138.052 323.052 138.5 322.5 138.5C321.948 138.5 321.5 138.052 321.5 137.5C321.5 136.948 321.948 136.5 322.5 136.5C323.052 136.5 323.5 136.948 323.5 137.5Z" stroke="#4FC3F7"/>
<path d="M313.5 147.5C313.5 148.052 313.052 148.5 312.5 148.5C311.948 148.5 311.5 148.052 311.5 147.5C311.5 146.948 311.948 146.5 312.5 146.5C313.052 146.5 313.5 146.948 313.5 147.5Z" stroke="#4FC3F7"/>
<path d="M301 147.5C301 148.052 300.552 148.5 300 148.5C299.448 148.5 299 148.052 299 147.5C299 146.948 299.448 146.5 300 146.5C300.552 146.5 301 146.948 301 147.5Z" stroke="#4FC3F7"/>
<path d="M291 137.5C291 138.052 290.552 138.5 290 138.5C289.448 138.5 289 138.052 289 137.5C289 136.948 289.448 136.5 290 136.5C290.552 136.5 291 136.948 291 137.5Z" stroke="#4FC3F7"/>
<path d="M286 147.5C286 148.052 285.552 148.5 285 148.5C284.448 148.5 284 148.052 284 147.5C284 146.948 284.448 146.5 285 146.5C285.552 146.5 286 146.948 286 147.5Z" stroke="#4FC3F7"/>
<path d="M248.5 147.5C248.5 148.052 248.052 148.5 247.5 148.5C246.948 148.5 246.5 148.052 246.5 147.5C246.5 146.948 246.948 146.5 247.5 146.5C248.052 146.5 248.5 146.948 248.5 147.5Z" stroke="#4FC3F7"/>
<path d="M221 147.5C221 148.052 220.552 148.5 220 148.5C219.448 148.5 219 148.052 219 147.5C219 146.948 219.448 146.5 220 146.5C220.552 146.5 221 146.948 221 147.5Z" stroke="#4FC3F7"/>
<path d="M266 137.5C266 138.052 265.552 138.5 265 138.5C264.448 138.5 264 138.052 264 137.5C264 136.948 264.448 136.5 265 136.5C265.552 136.5 266 136.948 266 137.5Z" stroke="#4FC3F7"/>
<path d="M238.5 137.5C238.5 138.052 238.052 138.5 237.5 138.5C236.948 138.5 236.5 138.052 236.5 137.5C236.5 136.948 236.948 136.5 237.5 136.5C238.052 136.5 238.5 136.948 238.5 137.5Z" stroke="#4FC3F7"/>
<path d="M258.5 157.5C258.5 158.052 258.052 158.5 257.5 158.5C256.948 158.5 256.5 158.052 256.5 157.5C256.5 156.948 256.948 156.5 257.5 156.5C258.052 156.5 258.5 156.948 258.5 157.5Z" stroke="#4FC3F7"/>
<path d="M200 142.5H215M184.5 122L195 132.5H232.5M222 142.5H242.5M267.5 132.5H285M210 152.5H262.5M250 142.5H280M240 132.5H260M287.5 142.5H295M292.5 132.5H327.5M302.5 142.5H317.5" stroke="#607D8B" stroke-linecap="round" stroke-linejoin="bevel"/>
<path d="M184.5 127L195 137.5M256.5 157.5H234.75H215L205 147.5M195 137.5H217.5M195 137.5L205 147.5M236.5 137.5H217.5M217.5 137.5L227.5 147.5H246.5M205 147.5H219" stroke="#4FC3F7"/>
<path d="M184 116.5L195 127.5H227H235M235 127.5H238H245H262.5M235 127.5L245 137.5M332 127.5H287.5M287.5 127.5L297.5 137.5M287.5 127.5H275H262.5M311.5 147.5H307.5L297.5 137.5M297.5 137.5H321.5M262.5 127.5L272.5 137.5H282.5M289 137.5H282.5M282.5 137.5L292.5 147.5H299M284 147.5H255L245 137.5M245 137.5H264" stroke="#4FC3F7"/>
<g filter="url(#filter4_d)">
<path d="M195 87.5L185 97.5V107.5L195 117.5H275L295 97.5H302.5L332.5 67.5H295H277.06L267.058 77.5H237.65L227.65 87.5H195Z" fill="#37474F"/>
</g>
<circle cx="320" cy="72.5" r="1" stroke="#4FC3F7"/>
<circle cx="300" cy="92.5" r="1" stroke="#4FC3F7"/>
<path d="M283.5 102.5C283.5 103.052 283.052 103.5 282.5 103.5C281.948 103.5 281.5 103.052 281.5 102.5C281.5 101.948 281.948 101.5 282.5 101.5C283.052 101.5 283.5 101.948 283.5 102.5Z" stroke="#4FC3F7"/>
<path d="M273.5 112.5C273.5 113.052 273.052 113.5 272.5 113.5C271.948 113.5 271.5 113.052 271.5 112.5C271.5 111.948 271.948 111.5 272.5 111.5C273.052 111.5 273.5 111.948 273.5 112.5Z" stroke="#4FC3F7"/>
<path d="M261 92.5C261 93.0523 260.552 93.5 260 93.5C259.448 93.5 259 93.0523 259 92.5C259 91.9477 259.448 91.5 260 91.5C260.552 91.5 261 91.9477 261 92.5Z" stroke="#4FC3F7"/>
<circle cx="235" cy="112.5" r="1" stroke="#4FC3F7"/>
<circle cx="310" cy="82.5" r="1" stroke="#4FC3F7"/>
<path d="M190 107.5H230M190 97.5H255M235 87.5H305M275 77.5H315M238 107.5H277.5M262.5 97.5H287.5" stroke="#607D8B" stroke-linecap="round" stroke-linejoin="bevel"/>
<path d="M185 102.5L195 92.5H230M185 102.5L195 112.5H234M185 102.5H233M230 92.5L240 82.5H270M230 92.5H259M270 82.5H282.09H309M270 82.5L275 77.5L280 72.5H319M233 102.5L243 112.5H271.5M233 102.5H257.5M281.5 102.5H257.5M257.5 102.5L267.5 92.5H299" stroke="#4FC3F7"/>
<g filter="url(#filter5_d)">
<path d="M180 77.5H170V52.5H175L185 62.5V72.5L180 77.5Z" fill="#37474F"/>
</g>
<path d="M170 112.5V102.5M170 112.5L182 124.5M170 112.5V128M177.5 60L170 67.5V102.5M170 282.5V128M170 102.5H182M170 102.5L182 114.5M170 102.5L179.5 93V82.5M170 128L179.5 137.5V152.5" stroke="#4FC3F7"/>
<path d="M170 282.5H175L170 287.5V282.5Z" fill="#4FC3F7"/>
<path d="M175 182.5L178 179.5H170V182.5H175Z" fill="#4FC3F7"/>
<path d="M175 157.5L180 152.5H170V157.5H175Z" fill="#4FC3F7"/>
<path d="M182 100.5L185 97.5V107.5L182 104.5V100.5Z" fill="#4FC3F7"/>
<path d="M181.5 109L185 112.5V132.5L181.5 129V109Z" fill="#4FC3F7"/>
<path d="M175 77.5L180 82.5H170V77.5H175Z" fill="#4FC3F7"/>
<path d="M175 57.5V52.5L185 62.5H180L175 57.5Z" fill="#4FC3F7"/>
<g filter="url(#filter6_d)">
<path d="M162.5 280V180L165 182.5H170V287.5L162.5 280Z" fill="#37474F"/>
</g>
<g filter="url(#filter7_d)">
<path d="M160 177.5V152.5L165 157.5H170V182.5H165L160 177.5Z" fill="#37474F"/>
</g>
<g filter="url(#filter8_d)">
<path d="M165 77.5L155 87.5V147.5L165 157.5H170V77.5H165Z" fill="#37474F"/>
</g>
<g filter="url(#filter9_d)">
<path d="M145 122.5L155 112.5V132.5L125 162.5H80L70 152.5H25L0 127.5L5 122.5H145Z" fill="#37474F"/>
</g>
<path d="M6 127.5C6 128.052 6.44772 128.5 7 128.5C7.55228 128.5 8 128.052 8 127.5C8 126.948 7.55228 126.5 7 126.5C6.44772 126.5 6 126.948 6 127.5Z" stroke="#4FC3F7"/>
<path d="M16.5 137.5C16.5 138.052 16.9477 138.5 17.5 138.5C18.0523 138.5 18.5 138.052 18.5 137.5C18.5 136.948 18.0523 136.5 17.5 136.5C16.9477 136.5 16.5 136.948 16.5 137.5Z" stroke="#4FC3F7"/>
<path d="M26.5 147.5C26.5 148.052 26.9477 148.5 27.5 148.5C28.0523 148.5 28.5 148.052 28.5 147.5C28.5 146.948 28.0523 146.5 27.5 146.5C26.9477 146.5 26.5 146.948 26.5 147.5Z" stroke="#4FC3F7"/>
<path d="M39 147.5C39 148.052 39.4477 148.5 40 148.5C40.5523 148.5 41 148.052 41 147.5C41 146.948 40.5523 146.5 40 146.5C39.4477 146.5 39 146.948 39 147.5Z" stroke="#4FC3F7"/>
<path d="M49 137.5C49 138.052 49.4477 138.5 50 138.5C50.5523 138.5 51 138.052 51 137.5C51 136.948 50.5523 136.5 50 136.5C49.4477 136.5 49 136.948 49 137.5Z" stroke="#4FC3F7"/>
<path d="M54 147.5C54 148.052 54.4477 148.5 55 148.5C55.5523 148.5 56 148.052 56 147.5C56 146.948 55.5523 146.5 55 146.5C54.4477 146.5 54 146.948 54 147.5Z" stroke="#4FC3F7"/>
<path d="M91.5 147.5C91.5 148.052 91.9477 148.5 92.5 148.5C93.0523 148.5 93.5 148.052 93.5 147.5C93.5 146.948 93.0523 146.5 92.5 146.5C91.9477 146.5 91.5 146.948 91.5 147.5Z" stroke="#4FC3F7"/>
<path d="M119 147.5C119 148.052 119.448 148.5 120 148.5C120.552 148.5 121 148.052 121 147.5C121 146.948 120.552 146.5 120 146.5C119.448 146.5 119 146.948 119 147.5Z" stroke="#4FC3F7"/>
<path d="M74 137.5C74 138.052 74.4477 138.5 75 138.5C75.5523 138.5 76 138.052 76 137.5C76 136.948 75.5523 136.5 75 136.5C74.4477 136.5 74 136.948 74 137.5Z" stroke="#4FC3F7"/>
<path d="M101.5 137.5C101.5 138.052 101.948 138.5 102.5 138.5C103.052 138.5 103.5 138.052 103.5 137.5C103.5 136.948 103.052 136.5 102.5 136.5C101.948 136.5 101.5 136.948 101.5 137.5Z" stroke="#4FC3F7"/>
<path d="M81.5 157.5C81.5 158.052 81.9477 158.5 82.5 158.5C83.0523 158.5 83.5 158.052 83.5 157.5C83.5 156.948 83.0523 156.5 82.5 156.5C81.9477 156.5 81.5 156.948 81.5 157.5Z" stroke="#4FC3F7"/>
<path d="M140 142.5H125M155.5 122L145 132.5H107.5M118 142.5H97.5M72.5 132.5H55M130 152.5H77.5M90 142.5H60M100 132.5H80M52.5 142.5H45M47.5 132.5H12.5M37.5 142.5H22.5" stroke="#607D8B" stroke-linecap="round" stroke-linejoin="bevel"/>
<path d="M155.5 127L145 137.5M83.5 157.5H105.25H125L135 147.5M145 137.5H122.5M145 137.5L135 147.5M103.5 137.5H122.5M122.5 137.5L112.5 147.5H93.5M135 147.5H121" stroke="#4FC3F7"/>
<path d="M156 116.5L145 127.5H113H105M105 127.5H102H95H77.5M105 127.5L95 137.5M8 127.5H52.5M52.5 127.5L42.5 137.5M52.5 127.5H65H77.5M28.5 147.5H32.5L42.5 137.5M42.5 137.5H18.5M77.5 127.5L67.5 137.5H57.5M51 137.5H57.5M57.5 137.5L47.5 147.5H41M56 147.5H85L95 137.5M95 137.5H76" stroke="#4FC3F7"/>
<g filter="url(#filter10_d)">
<path d="M145 87.5L155 97.5V107.5L145 117.5H65L45 97.5H37.5L7.5 67.5H45H62.94L72.9415 77.5H102.35L112.35 87.5H145Z" fill="#37474F"/>
</g>
<circle r="1" transform="matrix(-1 0 0 1 20 72.5)" stroke="#4FC3F7"/>
<circle r="1" transform="matrix(-1 0 0 1 40 92.5)" stroke="#4FC3F7"/>
<path d="M56.5 102.5C56.5 103.052 56.9477 103.5 57.5 103.5C58.0523 103.5 58.5 103.052 58.5 102.5C58.5 101.948 58.0523 101.5 57.5 101.5C56.9477 101.5 56.5 101.948 56.5 102.5Z" stroke="#4FC3F7"/>
<path d="M66.5 112.5C66.5 113.052 66.9477 113.5 67.5 113.5C68.0523 113.5 68.5 113.052 68.5 112.5C68.5 111.948 68.0523 111.5 67.5 111.5C66.9477 111.5 66.5 111.948 66.5 112.5Z" stroke="#4FC3F7"/>
<path d="M79 92.5C79 93.0523 79.4477 93.5 80 93.5C80.5523 93.5 81 93.0523 81 92.5C81 91.9477 80.5523 91.5 80 91.5C79.4477 91.5 79 91.9477 79 92.5Z" stroke="#4FC3F7"/>
<circle r="1" transform="matrix(-1 0 0 1 105 112.5)" stroke="#4FC3F7"/>
<circle r="1" transform="matrix(-1 0 0 1 30 82.5)" stroke="#4FC3F7"/>
<path d="M150 107.5H110M150 97.5H85M105 87.5H35M65 77.5H25M102 107.5H62.5M77.5 97.5H52.5" stroke="#607D8B" stroke-linecap="round" stroke-linejoin="bevel"/>
<path d="M155 102.5L145 92.5H110M155 102.5L145 112.5H106M155 102.5H107M110 92.5L100 82.5H70M110 92.5H81M70 82.5H57.9098H31M70 82.5L65 77.5L60 72.5H21M107 102.5L97 112.5H68.5M107 102.5H82.5M58.5 102.5H82.5M82.5 102.5L72.5 92.5H41" stroke="#4FC3F7"/>
<g filter="url(#filter11_d)">
<path d="M160 77.5H170V52.5H165L155 62.5V72.5L160 77.5Z" fill="#37474F"/>
</g>
<path d="M170 112.5V102.5M170 112.5L158 124.5M170 112.5V128M162.5 60L170 67.5V102.5M170 282.5V128M170 102.5H158M170 102.5L158 114.5M170 102.5L160.5 93V82.5M170 128L160.5 137.5V152.5" stroke="#4FC3F7"/>
<path d="M170 282.5H165L170 287.5V282.5Z" fill="#4FC3F7"/>
<path d="M165 182.5L162 179.5H170V182.5H165Z" fill="#4FC3F7"/>
<path d="M165 157.5L160 152.5H170V157.5H165Z" fill="#4FC3F7"/>
<path d="M158 100.5L155 97.5V107.5L158 104.5V100.5Z" fill="#4FC3F7"/>
<path d="M158.5 109L155 112.5V132.5L158.5 129V109Z" fill="#4FC3F7"/>
<path d="M165 77.5L160 82.5H170V77.5H165Z" fill="#4FC3F7"/>
<path d="M165 57.5V52.5L155 62.5H160L165 57.5Z" fill="#4FC3F7"/>
</g>
</g>
<defs>
<filter id="filter0_d" x="167" y="180" width="15.5" height="115.5" filterUnits="userSpaceOnUse" color-interpolation-filters="sRGB">
<feFlood flood-opacity="0" result="BackgroundImageFix"/>
<feColorMatrix in="SourceAlpha" type="matrix" values="0 0 0 0 0 0 0 0 0 0 0 0 0 0 0 0 0 0 127 0"/>
<feOffset dx="1" dy="4"/>
<feGaussianBlur stdDeviation="2"/>
<feColorMatrix type="matrix" values="0 0 0 0 0 0 0 0 0 0 0 0 0 0 0 0 0 0 0.25 0"/>
<feBlend mode="normal" in2="BackgroundImageFix" result="effect1_dropShadow"/>
<feBlend mode="normal" in="SourceGraphic" in2="effect1_dropShadow" result="shape"/>
</filter>
<filter id="filter1_d" x="168" y="152.5" width="18" height="38" filterUnits="userSpaceOnUse" color-interpolation-filters="sRGB">
<feFlood flood-opacity="0" result="BackgroundImageFix"/>
<feColorMatrix in="SourceAlpha" type="matrix" values="0 0 0 0 0 0 0 0 0 0 0 0 0 0 0 0 0 0 127 0"/>
<feOffset dx="2" dy="4"/>
<feGaussianBlur stdDeviation="2"/>
<feColorMatrix type="matrix" values="0 0 0 0 0 0 0 0 0 0 0 0 0 0 0 0 0 0 0.25 0"/>
<feBlend mode="normal" in2="BackgroundImageFix" result="effect1_dropShadow"/>
<feBlend mode="normal" in="SourceGraphic" in2="effect1_dropShadow" result="shape"/>
</filter>
<filter id="filter2_d" x="169" y="77.5" width="21" height="86" filterUnits="userSpaceOnUse" color-interpolation-filters="sRGB">
<feFlood flood-opacity="0" result="BackgroundImageFix"/>
<feColorMatrix in="SourceAlpha" type="matrix" values="0 0 0 0 0 0 0 0 0 0 0 0 0 0 0 0 0 0 127 0"/>
<feOffset dx="2" dy="3"/>
<feGaussianBlur stdDeviation="1.5"/>
<feColorMatrix type="matrix" values="0 0 0 0 0 0 0 0 0 0 0 0 0 0 0 0 0 0 0.25 0"/>
<feBlend mode="normal" in2="BackgroundImageFix" result="effect1_dropShadow"/>
<feBlend mode="normal" in="SourceGraphic" in2="effect1_dropShadow" result="shape"/>
</filter>
<filter id="filter3_d" x="184" y="112.5" width="163" height="58" filterUnits="userSpaceOnUse" color-interpolation-filters="sRGB">
<feFlood flood-opacity="0" result="BackgroundImageFix"/>
<feColorMatrix in="SourceAlpha" type="matrix" values="0 0 0 0 0 0 0 0 0 0 0 0 0 0 0 0 0 0 127 0"/>
<feOffset dx="3" dy="4"/>
<feGaussianBlur stdDeviation="2"/>
<feColorMatrix type="matrix" values="0 0 0 0 0 0 0 0 0 0 0 0 0 0 0 0 0 0 0.25 0"/>
<feBlend mode="normal" in2="BackgroundImageFix" result="effect1_dropShadow"/>
<feBlend mode="normal" in="SourceGraphic" in2="effect1_dropShadow" result="shape"/>
</filter>
<filter id="filter4_d" x="185" y="67.5" width="153.5" height="57" filterUnits="userSpaceOnUse" color-interpolation-filters="sRGB">
<feFlood flood-opacity="0" result="BackgroundImageFix"/>
<feColorMatrix in="SourceAlpha" type="matrix" values="0 0 0 0 0 0 0 0 0 0 0 0 0 0 0 0 0 0 127 0"/>
<feOffset dx="3" dy="4"/>
<feGaussianBlur stdDeviation="1.5"/>
<feColorMatrix type="matrix" values="0 0 0 0 0 0 0 0 0 0 0 0 0 0 0 0 0 0 0.25 0"/>
<feBlend mode="normal" in2="BackgroundImageFix" result="effect1_dropShadow"/>
<feBlend mode="normal" in="SourceGraphic" in2="effect1_dropShadow" result="shape"/>
</filter>
<filter id="filter5_d" x="170" y="52.5" width="19" height="29" filterUnits="userSpaceOnUse" color-interpolation-filters="sRGB">
<feFlood flood-opacity="0" result="BackgroundImageFix"/>
<feColorMatrix in="SourceAlpha" type="matrix" values="0 0 0 0 0 0 0 0 0 0 0 0 0 0 0 0 0 0 127 0"/>
<feOffset dx="2" dy="2"/>
<feGaussianBlur stdDeviation="1"/>
<feColorMatrix type="matrix" values="0 0 0 0 0 0 0 0 0 0 0 0 0 0 0 0 0 0 0.25 0"/>
<feBlend mode="normal" in2="BackgroundImageFix" result="effect1_dropShadow"/>
<feBlend mode="normal" in="SourceGraphic" in2="effect1_dropShadow" result="shape"/>
</filter>
<filter id="filter6_d" x="157.5" y="180" width="15.5" height="115.5" filterUnits="userSpaceOnUse" color-interpolation-filters="sRGB">
<feFlood flood-opacity="0" result="BackgroundImageFix"/>
<feColorMatrix in="SourceAlpha" type="matrix" values="0 0 0 0 0 0 0 0 0 0 0 0 0 0 0 0 0 0 127 0"/>
<feOffset dx="-1" dy="4"/>
<feGaussianBlur stdDeviation="2"/>
<feColorMatrix type="matrix" values="0 0 0 0 0 0 0 0 0 0 0 0 0 0 0 0 0 0 0.25 0"/>
<feBlend mode="normal" in2="BackgroundImageFix" result="effect1_dropShadow"/>
<feBlend mode="normal" in="SourceGraphic" in2="effect1_dropShadow" result="shape"/>
</filter>
<filter id="filter7_d" x="154" y="152.5" width="18" height="38" filterUnits="userSpaceOnUse" color-interpolation-filters="sRGB">
<feFlood flood-opacity="0" result="BackgroundImageFix"/>
<feColorMatrix in="SourceAlpha" type="matrix" values="0 0 0 0 0 0 0 0 0 0 0 0 0 0 0 0 0 0 127 0"/>
<feOffset dx="-2" dy="4"/>
<feGaussianBlur stdDeviation="2"/>
<feColorMatrix type="matrix" values="0 0 0 0 0 0 0 0 0 0 0 0 0 0 0 0 0 0 0.25 0"/>
<feBlend mode="normal" in2="BackgroundImageFix" result="effect1_dropShadow"/>
<feBlend mode="normal" in="SourceGraphic" in2="effect1_dropShadow" result="shape"/>
</filter>
<filter id="filter8_d" x="150" y="77.5" width="21" height="86" filterUnits="userSpaceOnUse" color-interpolation-filters="sRGB">
<feFlood flood-opacity="0" result="BackgroundImageFix"/>
<feColorMatrix in="SourceAlpha" type="matrix" values="0 0 0 0 0 0 0 0 0 0 0 0 0 0 0 0 0 0 127 0"/>
<feOffset dx="-2" dy="3"/>
<feGaussianBlur stdDeviation="1.5"/>
<feColorMatrix type="matrix" values="0 0 0 0 0 0 0 0 0 0 0 0 0 0 0 0 0 0 0.25 0"/>
<feBlend mode="normal" in2="BackgroundImageFix" result="effect1_dropShadow"/>
<feBlend mode="normal" in="SourceGraphic" in2="effect1_dropShadow" result="shape"/>
</filter>
<filter id="filter9_d" x="-7" y="112.5" width="163" height="58" filterUnits="userSpaceOnUse" color-interpolation-filters="sRGB">
<feFlood flood-opacity="0" result="BackgroundImageFix"/>
<feColorMatrix in="SourceAlpha" type="matrix" values="0 0 0 0 0 0 0 0 0 0 0 0 0 0 0 0 0 0 127 0"/>
<feOffset dx="-3" dy="4"/>
<feGaussianBlur stdDeviation="2"/>
<feColorMatrix type="matrix" values="0 0 0 0 0 0 0 0 0 0 0 0 0 0 0 0 0 0 0.25 0"/>
<feBlend mode="normal" in2="BackgroundImageFix" result="effect1_dropShadow"/>
<feBlend mode="normal" in="SourceGraphic" in2="effect1_dropShadow" result="shape"/>
</filter>
<filter id="filter10_d" x="1.5" y="67.5" width="153.5" height="57" filterUnits="userSpaceOnUse" color-interpolation-filters="sRGB">
<feFlood flood-opacity="0" result="BackgroundImageFix"/>
<feColorMatrix in="SourceAlpha" type="matrix" values="0 0 0 0 0 0 0 0 0 0 0 0 0 0 0 0 0 0 127 0"/>
<feOffset dx="-3" dy="4"/>
<feGaussianBlur stdDeviation="1.5"/>
<feColorMatrix type="matrix" values="0 0 0 0 0 0 0 0 0 0 0 0 0 0 0 0 0 0 0.25 0"/>
<feBlend mode="normal" in2="BackgroundImageFix" result="effect1_dropShadow"/>
<feBlend mode="normal" in="SourceGraphic" in2="effect1_dropShadow" result="shape"/>
</filter>
<filter id="filter11_d" x="151" y="52.5" width="19" height="29" filterUnits="userSpaceOnUse" color-interpolation-filters="sRGB">
<feFlood flood-opacity="0" result="BackgroundImageFix"/>
<feColorMatrix in="SourceAlpha" type="matrix" values="0 0 0 0 0 0 0 0 0 0 0 0 0 0 0 0 0 0 127 0"/>
<feOffset dx="-2" dy="2"/>
<feGaussianBlur stdDeviation="1"/>
<feColorMatrix type="matrix" values="0 0 0 0 0 0 0 0 0 0 0 0 0 0 0 0 0 0 0.25 0"/>
<feBlend mode="normal" in2="BackgroundImageFix" result="effect1_dropShadow"/>
<feBlend mode="normal" in="SourceGraphic" in2="effect1_dropShadow" result="shape"/>
</filter>
<clipPath id="clip0">
<rect width="340" height="340" fill="white"/>
</clipPath>
<clipPath id="clip1">
<path d="M0 52H340V287H0V52Z" fill="white"/>
</clipPath>
</defs>
</svg>
